<svg xmlns="http://www.w3.org/2000/svg" viewBox="0 0 64 64">
  <path d="M32 6C18 6 10 20 10 34c0 8 4 14 10 18l2-2C16 46 14 40 14 34c0-12 6-24 18-24s18 12 18 24c0 6-2 12-8 16l2 2c6-4 10-10 10-18C54 20 46 6 32 6z" fill="#6ee7b7"/>
  <ellipse cx="32" cy="28" rx="14" ry="20" fill="#6ee7b7" opacity="0.9"/>
  <path d="M32 12v40" stroke="#0f1117" stroke-width="2" stroke-linecap="round"/>
  <path d="M32 20l-8 8M32 26l-6 6M32 32l-4 4" stroke="#0f1117" stroke-width="1.5" stroke-linecap="round" opacity="0.5"/>
  <path d="M32 20l8 8M32 26l6 6M32 32l4 4" stroke="#0f1117" stroke-width="1.5" stroke-linecap="round" opacity="0.5"/>
</svg>